# xmcd
#
# Track frame offsets:
#	150
#	19505
#	39266
#	57885
#	74882
#	92807
#	118575
#	138904
#	160323
#	186106
#	208061
#	226947
#	247081
#	265916
#	284482
#	303429
#
# Disc length: 4337 seconds
#
# Revision: 0
# Processed by: cddbd v1.4PL0 Copyright (c) Steve Scherf et al.
# Submitted via: dBpowerAMP V4.0
#
DISCID=e910ef10
DTITLE=Bachatas - Lo Mejor En Bachatas 2003
DYEAR=1900
DGENRE=Blues
TTITLE0=Obsesión
TTITLE1=Yo Me Iré
TTITLE2=Te Quiero Igual Que Ayer
TTITLE3=Infiel
TTITLE4=O Me Voy O Te Vas
TTITLE5=Si Quieres Volver
TTITLE6=Entre Tú Y Yo
TTITLE7=Morena Yo Soy Tu Marido
TTITLE8=No Te Puedo Perdonar
TTITLE9=El Hombre De Tu Vida
TTITLE10=Si Quisiera Volver
TTITLE11=No Lo Perdona Dios
TTITLE12=Homenaje Al Bachatero
TTITLE13=Heridas Sobre Heridas
TTITLE14=Yo Me Iré 2
TTITLE15=Quiero Besarte
EXTD=Lo Mejor En Bachatas 2003
EXTT0=
EXTT1=
EXTT2=
EXTT3=
EXTT4=
EXTT5=
EXTT6=
EXTT7=
EXTT8=
EXTT9=
EXTT10=
EXTT11=
EXTT12=
EXTT13=
EXTT14=
EXTT15=
PLAYORDER=
